<svg xmlns="http://www.w3.org/2000/svg" viewBox="0 0 520 520" width="100%" role="img">
<title>ITSSuG26001-C</title>
<rect width="520" height="520" fill="#FFFFFF"/>
<path d="M0.0 520.0L0.0 0.0L520.0 0.0L520.0 520.0Z" fill="none" fill-rule="evenodd" stroke="#c0c0c0" stroke-width="1"/>
<path d="M353.6 501.4L353.6 498.3L355.2 498.3L355.2 482.7L353.6 482.7L353.6 479.5L359.8 479.5L359.8 482.7L358.3 482.7L358.3 498.3L359.8 498.3L359.8 501.4ZM373.9 501.4L373.9 482.7L367.6 482.7L367.6 479.5L383.2 479.5L383.2 482.7L377.0 482.7L377.0 501.4ZM389.5 501.4L386.4 498.3L386.4 495.1L389.5 495.1L389.5 496.7L391.0 498.3L397.4 498.3L398.9 496.7L398.9 493.6L397.4 492.0L389.5 492.0L386.4 488.9L386.4 482.7L389.5 479.5L398.9 479.5L402.1 482.7L402.1 485.8L398.9 485.8L398.9 484.2L397.4 482.7L391.0 482.7L389.5 484.2L389.5 487.3L391.0 488.9L398.9 488.9L402.1 492.0L402.1 498.3L398.9 501.4ZM408.3 501.4L405.2 498.3L405.2 479.5L408.3 479.5L408.3 496.7L409.9 498.3L416.1 498.3L417.7 496.7L417.7 479.5L420.8 479.5L420.8 498.3L417.7 501.4ZM423.9 501.4L423.9 479.5L436.4 479.5L439.5 482.7L439.5 488.9L436.4 492.0L436.4 493.6L439.5 496.7L439.5 501.4L436.4 501.4L436.4 498.3L430.1 492.0L427.0 492.0L427.0 501.4ZM427.0 488.9L434.8 488.9L436.4 487.3L436.4 484.2L434.8 482.7L427.0 482.7ZM181.0 417.1L181.0 409.3L170.6 409.3L170.6 401.5L181.0 401.5L181.0 393.7L186.4 393.7L194.0 405.4L186.7 417.1ZM90.0 429.0L90.0 383.4L122.5 383.4L122.5 390.0L96.5 390.0L96.5 403.0L109.5 403.0L109.5 409.4L96.5 409.4L96.5 422.4L122.5 422.4L122.5 429.0ZM148.5 429.0L148.5 419.2L129.0 419.2L129.0 403.0L148.5 383.4L155.0 383.4L155.0 412.8L161.5 412.8L161.5 419.2L155.0 419.2L155.0 429.0ZM135.5 412.8L148.5 412.8L148.5 396.4L145.2 396.4L135.5 406.2ZM403.0 371.8L403.0 326.2L435.6 326.2L435.6 332.8L409.6 332.8L409.6 345.8L422.6 345.8L422.6 352.2L409.6 352.2L409.6 365.2L435.6 365.2L435.6 371.8ZM448.6 371.8L442.0 365.2L442.0 358.8L448.6 358.8L448.6 362.0L451.8 365.2L464.8 365.2L468.0 362.0L468.0 355.6L464.8 352.2L455.0 352.2L455.0 345.8L464.8 345.8L468.0 342.6L468.0 336.0L464.8 332.8L451.8 332.8L448.6 336.0L448.6 339.2L442.0 339.2L442.0 332.8L448.6 326.2L468.0 326.2L474.6 332.8L474.6 365.2L468.0 371.8ZM438.7 314.1L438.7 303.7L430.9 303.7L430.9 298.3L442.5 290.7L454.3 298.0L454.3 303.7L446.5 303.7L446.5 314.1ZM79.9 170.4L68.1 163.1L68.1 157.4L75.9 157.4L75.9 147.0L83.7 147.0L83.7 157.4L91.5 157.4L91.5 162.8ZM43.2 137.8L43.2 92.2L75.7 92.2L75.7 98.8L49.7 98.8L49.7 111.8L62.7 111.8L62.7 118.2L49.7 118.2L49.7 131.2L75.7 131.2L75.7 137.8ZM82.2 137.8L82.2 131.2L95.2 131.2L95.2 105.2L91.9 105.2L85.4 111.8L82.2 111.8L82.2 105.2L95.2 92.2L101.7 92.2L101.7 131.2L114.7 131.2L114.7 137.8ZM325.6 66.4L318.0 54.7L325.3 43.0L331.0 43.0L331.0 50.8L341.4 50.8L341.4 58.6L331.0 58.6L331.0 66.4ZM350.0 75.4L350.0 29.8L382.5 29.8L382.5 36.4L356.5 36.4L356.5 49.4L369.5 49.4L369.5 55.8L356.5 55.8L356.5 68.8L382.5 68.8L382.5 75.4ZM389.0 75.4L389.0 59.2L395.5 52.6L411.7 52.6L415.0 49.4L415.0 39.6L411.7 36.4L398.7 36.4L395.5 39.6L395.5 42.8L389.0 42.8L389.0 36.4L395.5 29.8L415.0 29.8L421.5 36.4L421.5 52.6L415.0 59.2L398.7 59.2L395.5 62.4L395.5 68.8L421.5 68.8L421.5 75.4ZM204.4 460.2L204.4 356.2L251.2 356.2L251.2 337.0L150.8 236.6L131.6 236.6L131.6 283.4L27.6 283.4L27.6 179.4L131.6 179.4L131.6 226.2L151.4 226.2L251.2 126.5L251.2 106.6L204.4 106.6L204.4 2.6L308.4 2.6L308.4 106.6L261.6 106.6L261.6 126.7L361.1 226.2L381.2 226.2L381.2 179.4L485.2 179.4L485.2 283.4L381.2 283.4L381.2 236.6L361.7 236.6L261.6 336.8L261.6 356.2L308.4 356.2L308.4 460.2Z" fill="#0080ff" fill-opacity="0.35" fill-rule="evenodd" stroke="#0080ff" stroke-width="0.3"/>
<path d="M209.6 455.0L209.6 361.4L303.2 361.4L303.2 455.0ZM32.8 278.2L32.8 184.6L126.4 184.6L126.4 278.2ZM386.4 278.2L386.4 184.6L480.0 184.6L480.0 278.2ZM256.3 356.7L131.2 231.7L256.3 106.7L381.3 231.7ZM209.6 101.4L209.6 7.8L303.2 7.8L303.2 101.4Z" fill="#ff00ff" fill-opacity="0.35" fill-rule="evenodd" stroke="#ff00ff" stroke-width="0.3"/>
<path d="M0.7 519.5L0.7 467.5L312.8 467.5L312.8 519.5Z" fill="#ff80a8" fill-opacity="0.25" fill-rule="evenodd" stroke="#ff80a8" stroke-width="0.3"/>
<path d="M312.0 520.0L312.0 468.0L520.0 468.0L520.0 520.0Z" fill="#404040" fill-opacity="0.3" fill-rule="evenodd" stroke="#404040" stroke-width="0.3"/>
</svg>