<svg xmlns="http://www.w3.org/2000/svg" viewBox="0 0 520 520" width="100%" role="img">
<title>UAAg26001-B</title>
<rect width="520" height="520" fill="#FFFFFF"/>
<path d="M0.0 520.0L0.0 0.0L520.0 0.0L520.0 520.0Z" fill="none" fill-rule="evenodd" stroke="#c0c0c0" stroke-width="1"/>
<path d="M337.0 509.6L332.8 505.4L332.8 480.5L337.0 480.5L337.0 503.4L339.0 505.4L347.4 505.4L349.4 503.4L349.4 480.5L353.6 480.5L353.6 505.4L349.4 509.6ZM357.8 509.6L357.8 486.7L364.0 480.5L372.3 480.5L378.6 486.7L378.6 509.6L374.4 509.6L374.4 499.2L361.9 499.2L361.9 509.6ZM361.9 495.0L374.4 495.0L374.4 488.8L370.2 484.6L366.1 484.6L361.9 488.8ZM382.7 509.6L382.7 486.7L389.0 480.5L397.3 480.5L403.5 486.7L403.5 509.6L399.4 509.6L399.4 499.2L386.9 499.2L386.9 509.6ZM386.9 495.0L399.4 495.0L399.4 488.8L395.2 484.6L391.0 484.6L386.9 488.8ZM438.9 509.6L438.9 505.4L441.0 505.4L441.0 484.6L438.9 484.6L438.9 480.5L447.2 480.5L447.2 484.6L445.1 484.6L445.1 505.4L447.2 505.4L447.2 509.6ZM461.8 509.6L457.6 505.4L457.6 484.6L461.8 480.5L474.2 480.5L478.4 484.6L478.4 488.8L474.2 488.8L474.2 486.7L472.2 484.6L463.8 484.6L461.8 486.7L461.8 503.4L463.8 505.4L472.2 505.4L474.2 503.4L474.2 501.3L478.4 501.3L478.4 505.4L474.2 509.6ZM490.9 509.6L482.6 501.3L482.6 480.5L486.7 480.5L486.7 499.2L493.0 505.4L499.2 499.2L499.2 480.5L503.4 480.5L503.4 501.3L495.0 509.6ZM364.8 250.6L364.8 234.0L369.0 229.8L377.3 229.8L381.5 234.0L383.6 234.0L387.7 229.8L394.0 229.8L394.0 234.0L389.8 234.0L381.5 242.3L381.5 246.5L394.0 246.5L394.0 250.6ZM369.0 246.5L377.3 246.5L377.3 236.1L375.2 234.0L371.1 234.0L369.0 236.1ZM7.9 245.2L7.9 228.6L12.1 224.4L20.4 224.4L24.5 228.6L26.6 228.6L30.8 224.4L37.0 224.4L37.0 228.6L32.9 228.6L24.5 236.9L24.5 241.1L37.0 241.1L37.0 245.2ZM12.1 241.1L20.4 241.1L20.4 230.7L18.3 228.6L14.1 228.6L12.1 230.7ZM178.3 243.3L178.3 226.6L182.4 222.5L190.7 222.5L194.9 226.6L197.0 226.6L201.1 222.5L207.4 222.5L207.4 226.6L203.2 226.6L194.9 234.9L194.9 239.1L207.4 239.1L207.4 243.3ZM182.4 239.1L190.7 239.1L190.7 228.7L188.7 226.6L184.5 226.6L182.4 228.7ZM369.0 225.7L364.8 221.5L364.8 209.0L369.0 204.9L377.3 204.9L379.4 207.0L381.5 204.9L389.8 204.9L394.0 209.0L394.0 221.5L389.8 225.7L385.6 225.7L385.6 221.5L387.7 221.5L389.8 219.4L389.8 211.1L387.7 209.0L383.6 209.0L381.5 211.1L381.5 217.4L377.3 217.4L377.3 211.1L375.2 209.0L371.1 209.0L369.0 211.1L369.0 219.4L371.1 221.5L373.2 221.5L373.2 225.7ZM16.2 220.3L7.9 212.0L7.9 207.8L32.9 207.8L32.9 199.5L37.0 199.5L37.0 220.3L32.9 220.3L32.9 212.0L16.2 212.0L16.2 214.0L20.4 218.2L20.4 220.3ZM182.4 218.3L178.3 214.1L178.3 201.7L182.4 197.5L192.8 197.5L197.0 201.7L197.0 212.1L199.1 214.1L203.2 214.1L203.2 197.5L207.4 197.5L207.4 218.3L197.0 218.3L192.8 214.1L192.8 203.7L190.7 201.7L184.5 201.7L182.4 203.7L182.4 212.1L184.5 214.1L186.6 214.1L186.6 218.3ZM46.3 465.4L46.3 356.7L148.2 230.7L148.2 226.3L46.3 226.3L46.3 220.1L148.2 220.1L148.2 216.0L46.3 110.0L46.3 2.6L150.3 2.6L150.3 222.1L48.4 222.1L48.4 224.2L150.3 224.2L150.3 465.4ZM228.3 465.4L228.3 356.7L330.2 246.2L330.2 241.9L228.2 241.9L228.2 235.7L330.2 235.7L330.2 233.6L228.2 233.6L228.2 227.3L330.2 227.3L330.2 225.3L228.2 225.3L228.2 219.0L330.2 219.0L330.2 216.9L228.2 216.9L228.2 210.7L330.2 210.7L330.2 208.6L228.2 208.6L228.2 202.4L330.2 202.4L330.2 198.2L228.3 111.3L228.3 2.6L332.3 2.6L332.3 204.5L230.3 204.5L230.3 206.5L332.3 206.5L332.3 212.8L230.3 212.8L230.3 214.9L332.3 214.9L332.3 221.1L230.3 221.1L230.3 223.2L332.3 223.2L332.3 229.4L230.3 229.4L230.3 231.5L332.3 231.5L332.3 237.7L230.3 237.7L230.3 239.8L332.3 239.8L332.3 465.4ZM409.8 465.4L409.8 356.7L511.7 272.1L511.7 267.9L409.8 267.9L409.8 261.7L511.7 261.7L511.7 259.6L409.8 259.6L409.8 253.3L511.7 253.3L511.7 251.3L409.8 251.3L409.8 245.0L511.7 245.0L511.7 242.9L409.8 242.9L409.8 236.7L511.7 236.7L511.7 234.6L409.8 234.6L409.8 228.4L511.7 228.4L511.7 226.3L409.8 226.3L409.8 220.1L511.7 220.1L511.7 218.0L409.8 218.0L409.8 211.7L511.7 211.7L511.7 209.7L409.8 209.7L409.8 203.4L511.7 203.4L511.7 201.3L409.8 201.3L409.8 195.1L511.7 195.1L511.7 193.0L409.8 193.0L409.8 186.8L511.7 186.8L511.7 182.7L409.8 111.3L409.8 2.6L513.8 2.6L513.8 188.9L411.8 188.9L411.8 190.9L513.8 190.9L513.8 197.2L411.8 197.2L411.8 199.3L513.8 199.3L513.8 205.5L411.8 205.5L411.8 207.6L513.8 207.6L513.8 213.8L411.8 213.8L411.8 215.9L513.8 215.9L513.8 222.1L411.8 222.1L411.8 224.2L513.8 224.2L513.8 230.5L411.8 230.5L411.8 232.5L513.8 232.5L513.8 238.8L411.8 238.8L411.8 240.9L513.8 240.9L513.8 247.1L411.8 247.1L411.8 249.2L513.8 249.2L513.8 255.4L411.8 255.4L411.8 257.5L513.8 257.5L513.8 263.7L411.8 263.7L411.8 265.8L513.8 265.8L513.8 465.4Z" fill="#0080ff" fill-opacity="0.35" fill-rule="evenodd" stroke="#0080ff" stroke-width="0.3"/>
<path d="M322.4 520.0L322.4 468.0L509.6 468.0L509.6 520.0ZM51.5 460.2L51.5 366.6L145.1 366.6L145.1 460.2ZM233.5 460.2L233.5 366.6L327.1 366.6L327.1 460.2ZM415.0 460.2L415.0 366.6L508.6 366.6L508.6 460.2ZM51.5 101.4L51.5 7.8L145.1 7.8L145.1 101.4ZM233.5 101.4L233.5 7.8L327.1 7.8L327.1 101.4ZM415.0 101.4L415.0 7.8L508.6 7.8L508.6 101.4Z" fill="#ff00ff" fill-opacity="0.35" fill-rule="evenodd" stroke="#ff00ff" stroke-width="0.3"/>
<path d="M0.0 520.0L0.0 468.0L312.0 468.0L312.0 520.0Z" fill="#ff80a8" fill-opacity="0.25" fill-rule="evenodd" stroke="#ff80a8" stroke-width="0.3"/>
<path d="M312.0 520.0L312.0 468.0L520.0 468.0L520.0 520.0Z" fill="#404040" fill-opacity="0.3" fill-rule="evenodd" stroke="#404040" stroke-width="0.3"/>
</svg>